<svg xmlns="http://www.w3.org/2000/svg" xmlns:xlink="http://www.w3.org/1999/xlink" width="500" zoomAndPan="magnify" viewBox="0 0 375 374.999991" height="500" preserveAspectRatio="xMidYMid meet" version="1.0"><defs><g/><clipPath id="2d69e2951c"><path d="M 131.25 131.25 L 243.75 131.25 L 243.75 243.75 L 131.25 243.75 Z M 131.25 131.25 " clip-rule="nonzero"/></clipPath></defs><rect x="-37.5" width="450" fill="#ffffff" y="-37.499999" height="449.999989" fill-opacity="1"/><rect x="-37.5" width="450" fill="#ffffff" y="-37.499999" height="449.999989" fill-opacity="1"/><rect x="-37.5" width="450" fill="#fbfaf9" y="-37.499999" height="449.999989" fill-opacity="1"/><path fill="#3d5afe" d="M 307.59375 129.183594 C 303.738281 127.851562 299.734375 126.589844 295.597656 125.398438 C 296.28125 122.632812 296.910156 119.898438 297.460938 117.214844 C 306.53125 73.113281 300.605469 37.582031 280.324219 25.886719 C 260.871094 14.671875 229.074219 26.363281 196.953125 54.324219 C 193.867188 57.011719 190.765625 59.859375 187.679688 62.839844 C 185.609375 60.867188 183.558594 58.960938 181.503906 57.136719 C 147.839844 27.242188 114.101562 14.640625 93.84375 26.375 C 74.414062 37.621094 68.660156 71.023438 76.839844 112.820312 C 77.628906 116.855469 78.550781 120.980469 79.59375 125.171875 C 74.820312 126.527344 70.210938 127.972656 65.800781 129.507812 C 26.335938 143.269531 1.132812 164.839844 1.132812 187.214844 C 1.132812 210.3125 28.1875 233.5 69.292969 247.554688 C 72.535156 248.660156 75.902344 249.707031 79.371094 250.699219 C 78.242188 255.226562 77.265625 259.671875 76.441406 264.011719 C 68.648438 305.082031 74.734375 337.691406 94.109375 348.859375 C 114.121094 360.410156 147.710938 348.539062 180.414062 319.949219 C 183.003906 317.695312 185.597656 315.289062 188.1875 312.785156 C 191.566406 316.019531 194.929688 319.089844 198.261719 321.976562 C 229.945312 349.238281 261.234375 360.25 280.585938 349.050781 C 300.578125 337.472656 307.085938 302.429688 298.640625 259.816406 C 298 256.554688 297.242188 253.234375 296.414062 249.855469 C 298.773438 249.15625 301.085938 248.425781 303.34375 247.683594 C 346.078125 233.511719 373.875 210.632812 373.875 187.214844 C 373.875 164.757812 347.855469 143.042969 307.59375 129.183594 Z M 298.335938 232.566406 C 296.296875 233.238281 294.199219 233.890625 292.074219 234.519531 C 287.355469 219.589844 280.992188 203.699219 273.191406 187.289062 C 280.628906 171.265625 286.746094 155.585938 291.332031 140.746094 C 295.144531 141.851562 298.84375 143.015625 302.410156 144.242188 C 336.90625 156.121094 357.945312 173.683594 357.945312 187.214844 C 357.945312 201.617188 335.230469 220.332031 298.335938 232.566406 Z M 283.019531 262.902344 C 286.761719 281.75 287.285156 298.789062 284.808594 312.117188 C 282.59375 324.085938 278.125 332.066406 272.605469 335.257812 C 260.855469 342.058594 235.742188 333.21875 208.660156 309.902344 C 205.542969 307.222656 202.414062 304.367188 199.28125 301.351562 C 209.78125 289.863281 220.277344 276.507812 230.527344 261.664062 C 248.539062 260.078125 265.558594 257.457031 281.007812 253.886719 C 281.765625 256.960938 282.433594 259.960938 283.019531 262.902344 Z M 128.214844 334.078125 C 116.738281 338.140625 107.597656 338.257812 102.070312 335.070312 C 90.3125 328.28125 85.425781 302.09375 92.09375 266.980469 C 92.859375 262.960938 93.765625 258.824219 94.816406 254.601562 C 110.082031 257.980469 126.984375 260.414062 145.042969 261.871094 C 155.359375 276.390625 166.164062 289.730469 177.039062 301.410156 C 174.667969 303.710938 172.292969 305.898438 169.933594 307.949219 C 155.476562 320.605469 140.988281 329.578125 128.214844 334.078125 Z M 74.449219 232.480469 C 56.273438 226.261719 41.261719 218.191406 30.972656 209.367188 C 21.730469 201.457031 17.0625 193.59375 17.0625 187.214844 C 17.0625 173.640625 37.296875 156.316406 71.046875 144.550781 C 75.140625 143.121094 79.425781 141.773438 83.875 140.511719 C 88.539062 155.6875 94.660156 171.558594 102.042969 187.59375 C 94.5625 203.875 88.355469 220 83.648438 235.363281 C 80.476562 234.445312 77.402344 233.484375 74.449219 232.480469 Z M 92.46875 109.761719 C 85.464844 73.949219 90.117188 46.9375 101.824219 40.160156 C 114.292969 32.9375 141.867188 43.234375 170.925781 69.046875 C 172.789062 70.695312 174.652344 72.421875 176.53125 74.210938 C 165.699219 85.839844 154.996094 99.082031 144.773438 113.515625 C 127.242188 115.140625 110.460938 117.75 95.035156 121.246094 C 94.0625 117.34375 93.203125 113.507812 92.46875 109.761719 Z M 253.242188 149.472656 C 249.558594 143.101562 245.773438 136.878906 241.914062 130.824219 C 253.8125 132.328125 265.199219 134.328125 275.898438 136.769531 C 272.695312 147.066406 268.691406 157.835938 263.976562 168.878906 C 260.597656 162.453125 257.015625 155.980469 253.242188 149.472656 Z M 187.679688 85.59375 C 195.03125 93.550781 202.386719 102.4375 209.621094 112.078125 C 202.328125 111.734375 194.945312 111.554688 187.503906 111.554688 C 180.136719 111.554688 172.8125 111.730469 165.5625 112.070312 C 172.800781 102.515625 180.226562 93.644531 187.679688 85.59375 Z M 121.695312 149.582031 C 118.011719 155.972656 114.5 162.410156 111.171875 168.863281 C 106.539062 157.863281 102.570312 147.046875 99.328125 136.601562 C 109.964844 134.21875 121.304688 132.273438 133.121094 130.796875 C 129.207031 136.90625 125.390625 143.171875 121.695312 149.582031 Z M 133.460938 244.757812 C 121.253906 243.402344 109.742188 241.554688 99.109375 239.238281 C 102.402344 228.605469 106.457031 217.566406 111.191406 206.324219 C 114.527344 212.773438 118.050781 219.210938 121.757812 225.621094 L 121.761719 225.621094 C 125.535156 232.144531 129.449219 238.523438 133.460938 244.757812 Z M 188.117188 289.949219 C 180.574219 281.808594 173.046875 272.792969 165.695312 263.109375 C 172.828125 263.382812 180.109375 263.53125 187.503906 263.53125 C 195.105469 263.53125 202.617188 263.355469 210 263.035156 C 202.75 272.894531 195.410156 281.925781 188.117188 289.949219 Z M 264.121094 205.753906 C 269.101562 217.113281 273.308594 228.09375 276.640625 238.550781 C 265.839844 241.015625 254.160156 242.996094 241.871094 244.480469 C 245.746094 238.347656 249.558594 232.011719 253.316406 225.503906 C 257.117188 218.921875 260.714844 212.324219 264.121094 205.753906 Z M 239.511719 217.550781 C 233.691406 227.660156 227.707031 237.300781 221.632812 246.402344 C 210.582031 247.1875 199.152344 247.597656 187.503906 247.597656 C 175.898438 247.597656 164.617188 247.246094 153.753906 246.535156 C 147.433594 237.316406 141.328125 227.644531 135.539062 217.640625 C 129.765625 207.664062 124.449219 197.597656 119.636719 187.59375 C 124.449219 177.574219 129.75 167.496094 135.492188 157.539062 L 135.488281 157.539062 C 141.246094 147.554688 147.304688 137.925781 153.566406 128.757812 C 164.644531 127.921875 176.015625 127.484375 187.503906 127.484375 C 199.050781 127.484375 210.421875 127.925781 221.503906 128.769531 C 227.675781 137.871094 233.691406 147.464844 239.46875 157.453125 C 245.308594 167.554688 250.679688 177.558594 255.53125 187.375 C 250.695312 197.351562 245.335938 207.457031 239.511719 217.550781 Z M 272.359375 39.679688 C 284.855469 46.882812 289.703125 75.917969 281.855469 113.996094 C 281.359375 116.425781 280.792969 118.898438 280.179688 121.40625 C 264.71875 117.835938 247.929688 115.183594 230.355469 113.53125 C 220.105469 98.941406 209.492188 85.679688 198.832031 74.199219 C 201.699219 71.441406 204.570312 68.8125 207.410156 66.332031 C 234.925781 42.378906 260.65625 32.921875 272.359375 39.679688 Z M 187.503906 153.914062 C 205.878906 153.914062 220.789062 168.816406 220.789062 187.210938 C 220.789062 205.589844 205.878906 220.503906 187.503906 220.503906 C 169.128906 220.503906 154.21875 205.589844 154.21875 187.210938 C 154.21875 168.816406 169.128906 153.914062 187.503906 153.914062 Z M 187.503906 153.914062 " fill-opacity="1" fill-rule="nonzero"/><g clip-path="url(#2d69e2951c)"><path fill="#ffffff" d="M 187.5 131.25 C 156.433594 131.25 131.25 156.433594 131.25 187.5 C 131.25 218.566406 156.433594 243.75 187.5 243.75 C 218.566406 243.75 243.75 218.566406 243.75 187.5 C 243.75 156.433594 218.566406 131.25 187.5 131.25 " fill-opacity="1" fill-rule="nonzero"/></g><g fill="#3d5afe" fill-opacity="1"><g transform="translate(155.789057, 207.749986)"><g><path d="M 4.734375 0 L 4.734375 -36.40625 L 19.34375 -36.40625 C 23.113281 -36.40625 25.957031 -35.535156 27.875 -33.796875 C 29.789062 -32.066406 30.75 -29.675781 30.75 -26.625 C 30.75 -24.414062 30.1875 -22.601562 29.0625 -21.1875 C 27.945312 -19.78125 26.28125 -18.703125 24.0625 -17.953125 L 24.0625 -17.4375 C 25.207031 -16.9375 26.128906 -16.195312 26.828125 -15.21875 C 27.535156 -14.238281 28.207031 -12.785156 28.84375 -10.859375 L 32.46875 0 L 25.078125 0 L 21.515625 -10.875 C 21.148438 -11.976562 20.738281 -12.832031 20.28125 -13.4375 C 19.820312 -14.039062 19.238281 -14.476562 18.53125 -14.75 C 17.832031 -15.03125 16.914062 -15.171875 15.78125 -15.171875 L 11.921875 -15.171875 L 11.921875 0 Z M 18.484375 -20.875 C 21.960938 -20.875 23.703125 -22.5 23.703125 -25.75 C 23.703125 -29.050781 21.960938 -30.703125 18.484375 -30.703125 L 11.921875 -30.703125 L 11.921875 -20.875 Z M 18.484375 -20.875 "/></g></g></g><g fill="#3d5afe" fill-opacity="1"><g transform="translate(189.822742, 207.749986)"><g><path d="M 12.75 0.515625 C 9.664062 0.515625 7.101562 -0.0664062 5.0625 -1.234375 C 3.019531 -2.398438 1.53125 -3.972656 0.59375 -5.953125 L 4.65625 -10.875 L 5.28125 -10.875 C 5.945312 -9.28125 6.890625 -8.023438 8.109375 -7.109375 C 9.328125 -6.191406 10.742188 -5.734375 12.359375 -5.734375 C 14.160156 -5.734375 15.5 -6.257812 16.375 -7.3125 C 17.257812 -8.363281 17.703125 -10.078125 17.703125 -12.453125 L 17.703125 -36.40625 L 24.875 -36.40625 L 24.875 -12.328125 C 24.875 -7.929688 23.875 -4.691406 21.875 -2.609375 C 19.875 -0.523438 16.832031 0.515625 12.75 0.515625 Z M 12.75 0.515625 "/></g></g></g></svg>